<svg width="28" height="18" viewBox="0 0 28 18" xmlns="http://www.w3.org/2000/svg">
  <rect width="28" height="18" fill="#d62828"/>
  <polygon points="5,3 6,5 8.3,5 6.5,6.4 7.1,8.7 5,7.5 2.9,8.7 3.5,6.4 1.7,5 4,5" fill="#fcd34d"/>
  <polygon points="9,3 9.5,4.4 11,4.4 9.8,5.3 10.3,6.6 9,5.8 7.7,6.6 8.2,5.3 7,4.4 8.5,4.4" fill="#fcd34d"/>
  <polygon points="10.5,5.5 11,6.9 12.5,6.9 11.3,7.8 11.8,9.1 10.5,8.3 9.2,9.1 9.7,7.8 8.5,6.9 10,6.9" fill="#fcd34d"/>
  <polygon points="10,8.5 10.5,9.9 12,9.9 10.8,10.8 11.3,12.1 10,11.3 8.7,12.1 9.2,10.8 8,9.9 9.5,9.9" fill="#fcd34d"/>
</svg>

