<svg width="28" height="18" viewBox="0 0 28 18" xmlns="http://www.w3.org/2000/svg">
  <rect width="28" height="18" fill="#0a369d"/>
  <path d="M0 0 L12 6 L0 12 Z" fill="#fff"/>
  <path d="M28 0 L16 6 L28 12 Z" fill="#fff"/>
  <path d="M0 6 L28 6 L28 12 L0 12 Z" fill="#fff"/>
  <path d="M12 0 L12 18 L16 18 L16 0 Z" fill="#fff"/>
  <path d="M0 0 L11 5.5 L11 7 L0 2 Z" fill="#d62828"/>
  <path d="M28 0 L17 5.5 L17 7 L28 2 Z" fill="#d62828"/>
  <path d="M0 18 L11 12.5 L11 11 L0 16 Z" fill="#d62828"/>
  <path d="M28 18 L17 12.5 L17 11 L28 16 Z" fill="#d62828"/>
  <rect x="11" width="6" height="18" fill="#d62828"/>
  <rect y="6" width="28" height="6" fill="#d62828"/>
</svg>

